<?xml version="1.0" encoding="UTF-8" standalone="no"?>
<!-- Created with Inkscape (http://www.inkscape.org/) -->

<svg
   xmlns:osb="http://www.openswatchbook.org/uri/2009/osb"
   xmlns:dc="http://purl.org/dc/elements/1.1/"
   xmlns:cc="http://creativecommons.org/ns#"
   xmlns:rdf="http://www.w3.org/1999/02/22-rdf-syntax-ns#"
   xmlns:svg="http://www.w3.org/2000/svg"
   xmlns="http://www.w3.org/2000/svg"
   xmlns:sodipodi="http://sodipodi.sourceforge.net/DTD/sodipodi-0.dtd"
   xmlns:inkscape="http://www.inkscape.org/namespaces/inkscape"
   version="1.0"
   width="1320"
   height="1320"
   viewBox="0 0 1320 1320"
   id="Layer_1"
   xml:space="preserve"
   inkscape:version="0.48+devel r11109"
   sodipodi:docname="libusbx_logo.svg"
   inkscape:export-filename="E:\libusbx-wiki\libusbx-160.png"
   inkscape:export-xdpi="11.417034"
   inkscape:export-ydpi="11.417034"><metadata
   id="metadata2997"><rdf:RDF><cc:Work
       rdf:about=""><dc:format>image/svg+xml</dc:format><dc:type
         rdf:resource="http://purl.org/dc/dcmitype/StillImage" /><dc:title /></cc:Work></rdf:RDF></metadata><sodipodi:namedview
   pagecolor="#ffffff"
   bordercolor="#666666"
   borderopacity="1"
   objecttolerance="10"
   gridtolerance="10"
   guidetolerance="10"
   inkscape:pageopacity="0"
   inkscape:pageshadow="2"
   inkscape:window-width="1680"
   inkscape:window-height="988"
   id="namedview2995"
   showgrid="false"
   fit-margin-top="0"
   fit-margin-left="0"
   fit-margin-right="0"
   fit-margin-bottom="0"
   inkscape:zoom="0.34109399"
   inkscape:cx="936.96752"
   inkscape:cy="500"
   inkscape:window-x="-8"
   inkscape:window-y="-8"
   inkscape:window-maximized="1"
   inkscape:current-layer="Layer_1"
   showguides="true"
   inkscape:guide-bbox="true"
   inkscape:snap-text-baseline="true"
   width="0px"
   height="0px"
   showborder="true"
   borderlayer="false" /><defs
   id="defs1337"><linearGradient
     id="linearGradient5704"><stop
       style="stop-color:#ffb380;stop-opacity:1"
       offset="0"
       id="stop5706" /><stop
       style="stop-color:#ff6600;stop-opacity:1"
       offset="1"
       id="stop5708" /></linearGradient><linearGradient
     id="linearGradient5612"
     osb:paint="solid"><stop
       style="stop-color:#ff6600;stop-opacity:1;"
       offset="0"
       id="stop5614" /></linearGradient><linearGradient
     id="linearGradient5598"
     osb:paint="solid"><stop
       style="stop-color:#ff6600;stop-opacity:1;"
       offset="0"
       id="stop5600" /></linearGradient></defs>

<g
   id="g831"
   inkscape:export-filename="D:\libusbx-wiki\libusbx-330.png"
   inkscape:export-xdpi="23.341713"
   inkscape:export-ydpi="23.341713"
   style="fill:#636363;fill-opacity:1"
   transform="translate(-76.849606,383.24183)"><g
     id="g835"
     style="fill:#636363;fill-opacity:1"><g
       id="g912"
       style="fill:#636363;fill-opacity:1"><g
         id="g916"
         style="fill:#636363;fill-opacity:1"><g
           id="g920"
           style="opacity:0.8;fill:#636363;fill-opacity:1"><g
             id="g924"
             inkscape:export-filename="D:\libusbx-wiki\X.png"
             inkscape:export-xdpi="12.082039"
             inkscape:export-ydpi="12.082039"
             style="fill:#636363;fill-opacity:1"><path
               style="fill:#636363;fill-opacity:1"
               d="m 1281.4062,215.625 -20.4863,19.70576 c 0,0 -59.4274,58.47499 -59.6074,58.63799 -0.2514,0.23737 -0.3346,0.21338 -0.3125,0.125 -7.1116,7.48013 -13.1562,19.06306 -13.1562,30.15625 l 0,39.84375 -16.7813,0 0,50.03125 50.0625,0 0,-50.03125 -16.75,0 0,-40.34375 c 0.131,-5.705 2.5094,-11.23275 5.9062,-15.46875 l 51.5,-50.71875 19.5938,-19.84375 c 50.6875,48 33.1501,31.40066 50.6875,48 3.397,4.238 5.7743,9.76475 5.9063,15.46875 0,23.07499 -0.01,36.79975 0,41.84375 -9.741,3.419 -16.75,12.582 -16.75,23.5 0,13.812 11.183,25.03125 25,25.03125 13.8228,0 25.0312,-11.21825 25.0312,-25.03125 0,-10.918 -7.017,-20.081 -16.75,-23.5 l 0,-41.34375 c 0,-11.202 -6.1388,-22.93525 -13.3438,-30.40625 0.214,0.204 -2.1166,-2.22825 -2.5624,-2.65625 -0.178,-0.158 -57.1876,-53 -57.1876,-53 z"
               id="path1334"
               inkscape:connector-curvature="0"
               sodipodi:nodetypes="ccccscccccccccccccssscsccc"
               inkscape:export-filename="D:\libusbx-wiki\Xi.png"
               inkscape:export-xdpi="12.199083"
               inkscape:export-ydpi="12.199083"
               transform="translate(0,-5.7652939e-6)" /><path
               style="fill:#636363;fill-opacity:1"
               d="m 1322.125,60 0,49.6875 16.75,0 0,40 c -0.131,5.66256 -2.5094,11.17051 -5.9062,15.375 -67.7328,66.2784 -71.5438,70.12092 -71.5438,70.12092 l -48.1016,-45.10494 c -3.9153,-3.68821 -7.9102,-12.32316 -8.0422,-17.98473 0,-22.90335 0.01,-36.49352 0,-41.5 9.741,-3.39357 16.75,-12.53822 16.75,-23.375 0,-13.70926 -11.183,-24.8125 -25,-24.8125 -13.8228,0 -25.0312,11.102247 -25.0312,24.8125 0,10.83678 7.017,19.98143 16.75,23.375 l 0,41 c 0,11.11869 6.1388,22.77207 13.3438,30.1875 -0.214,-0.20248 8.2416,8.20018 8.6874,8.625 l 51.1151,47.20882 19.9699,-19.41219 11.4357,-11.56558 c 0,0 48.5806,-47.06927 48.7606,-47.23105 7.204,-7.41543 13.3437,-19.06684 13.3437,-30.1875 l 0,-39.53125 16.7813,0 0,-49.6875 z"
               id="path1334-1"
               inkscape:connector-curvature="0"
               sodipodi:nodetypes="cccccccccssscsccccccscccc"
               inkscape:export-filename="D:\libusbx-wiki\Xi.png"
               inkscape:export-xdpi="12.199083"
               inkscape:export-ydpi="12.199083"
               transform="translate(0,-5.7652939e-6)" /></g></g></g></g></g></g><text
   xml:space="preserve"
   style="font-size:144px;font-style:normal;font-weight:normal;line-height:125%;letter-spacing:0px;word-spacing:0px;fill:#ff0000;fill-opacity:1;stroke:none;font-family:Sans"
   x="843.58496"
   y="1074.8903"
   id="text3041"
   sodipodi:linespacing="125%"
   inkscape:export-filename="D:\libusbx-wiki\libusbx.png"
   inkscape:export-xdpi="8.1452723"
   inkscape:export-ydpi="8.1452723"><tspan
     sodipodi:role="line"
     id="tspan3043"
     x="843.58496"
     y="1074.8903" /></text>








<text
   xml:space="preserve"
   style="font-size:72px;font-style:normal;font-weight:normal;line-height:125%;letter-spacing:0px;word-spacing:0px;fill:#d40000;fill-opacity:1;stroke:none;font-family:Sans"
   x="650.79077"
   y="999.22375"
   id="text3045"
   sodipodi:linespacing="125%"
   inkscape:export-filename="D:\libusbx-wiki\libusbx.png"
   inkscape:export-xdpi="8.1452723"
   inkscape:export-ydpi="8.1452723"><tspan
     sodipodi:role="line"
     id="tspan3047"
     x="650.79077"
     y="999.22375" /></text>








<text
   xml:space="preserve"
   style="font-size:144px;font-style:normal;font-weight:normal;line-height:125%;letter-spacing:0px;word-spacing:0px;fill:#ff0000;fill-opacity:1;stroke:none;font-family:Sans"
   x="1055.0366"
   y="1114.2783"
   id="text3049"
   sodipodi:linespacing="125%"
   inkscape:export-filename="D:\libusbx-wiki\libusbx.png"
   inkscape:export-xdpi="8.1452723"
   inkscape:export-ydpi="8.1452723"><tspan
     sodipodi:role="line"
     id="tspan3051"
     x="1055.0366"
     y="1114.2783" /></text>








<text
   xml:space="preserve"
   style="font-size:428.04626465px;font-style:normal;font-weight:normal;line-height:125%;letter-spacing:0px;word-spacing:0px;fill:#f68618;fill-opacity:1;stroke:none;font-family:Sans;-inkscape-font-specification:Sans"
   x="-12.866343"
   y="741.58136"
   id="text3065"
   sodipodi:linespacing="125%"
   transform="scale(0.94065696,1.0630868)"
   inkscape:export-xdpi="23.341713"
   inkscape:export-ydpi="23.341713"
   inkscape:export-filename="D:\libusbx-wiki\libusbx-330.png"><tspan
     sodipodi:role="line"
     id="tspan3067"
     x="-12.866343"
     y="741.58136"
     style="letter-spacing:-21.57837296px;fill:#f68618;fill-opacity:1">libusb</tspan></text>








</svg>